# xmcd
#
# Track frame offsets: 
#        150
#        21458
#        40531
#        56542
#        81618
#        99141
#        117378
#        133400
#        150473
#        171906
#        192351
#        224610
#
# Disc length: 4450 seconds
#
# Revision: 0
# Processed by: cddbd v1.5.2PL0 Copyright (c) Steve Scherf et al.
# Submitted via: ExactAudioCopy v0.99pb5
#
DISCID=aa11600c
DTITLE=Wayne Lavallee - Trail of Tears
DYEAR=2009
DGENRE=Blues
TTITLE0=Trail of Tears
TTITLE1=The Tonto Project
TTITLE2=Big Country
TTITLE3=Shed Allot of Light
TTITLE4=River Road
TTITLE5=Buffalo Soldier
TTITLE6=Who I Wuz
TTITLE7=Geronimo
TTITLE8=Heart Land
TTITLE9=Star Spangled Sensation
TTITLE10=Sacred Journey
TTITLE11=Video Program
EXTD=
EXTT0=
EXTT1=
EXTT2=
EXTT3=
EXTT4=
EXTT5=
EXTT6=
EXTT7=
EXTT8=
EXTT9=
EXTT10=
EXTT11=
PLAYORDER=
